<svg width="15" height="16" viewBox="0 0 15 16" fill="none" xmlns="http://www.w3.org/2000/svg">
<path d="M14.625 11.75L10.875 15.5L8.25 12.875L9.375 11.75L10.875 13.25L13.5 10.625L14.625 11.75ZM1.5 0.5C1.10218 0.5 0.720644 0.658035 0.43934 0.93934C0.158035 1.22064 0 1.60218 0 2V14C0 14.8325 0.6675 15.5 1.5 15.5H7.3575C7.0875 15.035 6.9 14.525 6.81 14H1.5V2H6.75V5.75H10.5V8.81C10.7475 8.7725 11.0025 8.75 11.25 8.75C11.505 8.75 11.7525 8.7725 12 8.81V5L7.5 0.5M3 8V9.5H9V8M3 11V12.5H6.75V11H3Z" fill="white"/>
</svg>
