<svg width="18" height="18" viewBox="0 0 18 18" fill="none" xmlns="http://www.w3.org/2000/svg">
<path d="M16.4583 8.16667H17.75V9.83333H16.4583C16.0833 13.3083 13.3083 16.0833 9.83333 16.4583V17.75H8.16667V16.4583C4.69167 16.0833 1.91667 13.3083 1.54167 9.83333H0.25V8.16667H1.54167C1.91667 4.69167 4.69167 1.91667 8.16667 1.54167V0.25H9.83333V1.54167C13.3083 1.91667 16.0833 4.69167 16.4583 8.16667ZM3.225 8.16667H4.41667V9.83333H3.225C3.4021 11.0812 3.97973 12.2378 4.87096 13.129C5.76219 14.0203 6.91878 14.5979 8.16667 14.775V13.5833H9.83333V14.775C11.0812 14.5979 12.2378 14.0203 13.129 13.129C14.0203 12.2378 14.5979 11.0812 14.775 9.83333H13.5833V8.16667H14.775C14.5979 6.91878 14.0203 5.76219 13.129 4.87096C12.2378 3.97973 11.0812 3.4021 9.83333 3.225V4.41667H8.16667V3.225C6.91878 3.4021 5.76219 3.97973 4.87096 4.87096C3.97973 5.76219 3.4021 6.91878 3.225 8.16667ZM12.3333 12.3333H5.66667V11.5C5.66667 10.3917 7.89167 9.83333 9 9.83333C10.1083 9.83333 12.3333 10.3917 12.3333 11.5V12.3333ZM9 5.66667C9.44203 5.66667 9.86595 5.84226 10.1785 6.15482C10.4911 6.46738 10.6667 6.89131 10.6667 7.33333C10.6667 7.77536 10.4911 8.19928 10.1785 8.51184C9.86595 8.8244 9.44203 9 9 9C8.55797 9 8.13405 8.8244 7.82149 8.51184C7.50893 8.19928 7.33333 7.77536 7.33333 7.33333C7.33333 6.89131 7.50893 6.46738 7.82149 6.15482C8.13405 5.84226 8.55797 5.66667 9 5.66667Z" fill="white"/>
</svg>
