<svg width="14" height="16" viewBox="0 0 14 16" fill="none" xmlns="http://www.w3.org/2000/svg">
<path d="M3.25 8.25H4.75V9.75H3.25V8.25ZM13.75 3.75V14.25C13.75 15.0825 13.0825 15.75 12.25 15.75H1.75C1.35218 15.75 0.970644 15.592 0.68934 15.3107C0.408035 15.0294 0.25 14.6478 0.25 14.25V3.75C0.25 2.925 0.925 2.25 1.75 2.25H2.5V0.75H4V2.25H10V0.75H11.5V2.25H12.25C12.6478 2.25 13.0294 2.40804 13.3107 2.68934C13.592 2.97064 13.75 3.35218 13.75 3.75ZM1.75 5.25H12.25V3.75H1.75V5.25ZM12.25 14.25V6.75H1.75V14.25H12.25ZM9.25 9.75V8.25H10.75V9.75H9.25ZM6.25 9.75V8.25H7.75V9.75H6.25ZM3.25 11.25H4.75V12.75H3.25V11.25ZM9.25 12.75V11.25H10.75V12.75H9.25ZM6.25 12.75V11.25H7.75V12.75H6.25Z" fill="#8A9FA6"/>
</svg>
