<svg width="14" height="14" viewBox="0 0 14 14" fill="none" xmlns="http://www.w3.org/2000/svg">
<path d="M1 0.25C0.801088 0.25 0.610322 0.329018 0.46967 0.46967C0.329018 0.610322 0.25 0.801088 0.25 1C0.25 4.38151 1.5933 7.62452 3.98439 10.0156C6.37548 12.4067 9.61849 13.75 13 13.75C13.1989 13.75 13.3897 13.671 13.5303 13.5303C13.671 13.3897 13.75 13.1989 13.75 13V10.375C13.75 10.1761 13.671 9.98532 13.5303 9.84467C13.3897 9.70402 13.1989 9.625 13 9.625C12.0625 9.625 11.1625 9.475 10.3225 9.1975C10.1906 9.1555 10.0498 9.15006 9.91512 9.18176C9.7804 9.21345 9.65681 9.2811 9.5575 9.3775L7.9075 11.0275C5.77839 9.94467 4.04783 8.21411 2.965 6.085L4.615 4.4275C4.71434 4.33326 4.78474 4.21264 4.81795 4.0798C4.85116 3.94696 4.8458 3.8074 4.8025 3.6775C4.51799 2.81354 4.37366 1.9096 4.375 1C4.375 0.801088 4.29598 0.610322 4.15533 0.46967C4.01468 0.329018 3.82391 0.25 3.625 0.25H1ZM12.25 6.25V5.125H9.625L13.75 1L13 0.25L8.875 4.375V1.75H7.75V6.25H12.25Z" fill="#A53644"/>
</svg>
