<svg width="12" height="7" viewBox="0 0 12 7" fill="none" xmlns="http://www.w3.org/2000/svg">
<path d="M11 0.25H4.5C3.95 0.25 3.5 0.7 3.5 1.25V5.75C3.5 6.01522 3.60536 6.26957 3.79289 6.45711C3.98043 6.64464 4.23478 6.75 4.5 6.75H11C11.555 6.75 12 6.305 12 5.75V1.25C12 0.984784 11.8946 0.73043 11.7071 0.542893C11.5196 0.355357 11.2652 0.25 11 0.25ZM11 5.75H4.5V2.085L7.75 3.75L11 2.085V5.75ZM7.75 2.905L4.5 1.25H11L7.75 2.905ZM2.5 5.75C2.5 5.835 2.515 5.915 2.525 6H0.5C0.224 6 0 5.775 0 5.5C0 5.225 0.224 5 0.5 5H2.5V5.75ZM1.5 1H2.525C2.515 1.085 2.5 1.165 2.5 1.25V2H1.5C1.225 2 1 1.775 1 1.5C1 1.225 1.225 1 1.5 1ZM0.5 3.5C0.5 3.225 0.725 3 1 3H2.5V4H1C0.725 4 0.5 3.775 0.5 3.5Z" fill="#FBFDFF"/>
</svg>
