<svg width="10" height="10" viewBox="0 0 10 10" fill="none" xmlns="http://www.w3.org/2000/svg">
<path d="M8.5 1C8.76522 1 9.01957 1.10536 9.20711 1.29289C9.39464 1.48043 9.5 1.73478 9.5 2V9C9.5 9.26522 9.39464 9.51957 9.20711 9.70711C9.01957 9.89464 8.76522 10 8.5 10H1.5C1.23478 10 0.98043 9.89464 0.792893 9.70711C0.605357 9.51957 0.5 9.26522 0.5 9V2C0.5 1.73478 0.605357 1.48043 0.792893 1.29289C0.98043 1.10536 1.23478 1 1.5 1H3.59C3.8 0.42 4.35 0 5 0C5.65 0 6.2 0.42 6.41 1H8.5ZM5 1C4.86739 1 4.74021 1.05268 4.64645 1.14645C4.55268 1.24021 4.5 1.36739 4.5 1.5C4.5 1.63261 4.55268 1.75979 4.64645 1.85355C4.74021 1.94732 4.86739 2 5 2C5.13261 2 5.25979 1.94732 5.35355 1.85355C5.44732 1.75979 5.5 1.63261 5.5 1.5C5.5 1.36739 5.44732 1.24021 5.35355 1.14645C5.25979 1.05268 5.13261 1 5 1ZM2.5 3V2H1.5V9H8.5V2H7.5V3H2.5ZM5 4C5.26522 4 5.51957 4.10536 5.70711 4.29289C5.89464 4.48043 6 4.73478 6 5C6 5.26522 5.89464 5.51957 5.70711 5.70711C5.51957 5.89464 5.26522 6 5 6C4.73478 6 4.48043 5.89464 4.29289 5.70711C4.10536 5.51957 4 5.26522 4 5C4 4.73478 4.10536 4.48043 4.29289 4.29289C4.48043 4.10536 4.73478 4 5 4ZM3 8V7.5C3 6.95 3.895 6.5 5 6.5C6.105 6.5 7 6.95 7 7.5V8H3Z" fill="white"/>
</svg>
