<svg width="10" height="11" viewBox="0 0 10 11" fill="none" xmlns="http://www.w3.org/2000/svg">
<path d="M8.5 1.5C8.76522 1.5 9.01957 1.60536 9.20711 1.79289C9.39464 1.98043 9.5 2.23478 9.5 2.5V9.5C9.5 9.76522 9.39464 10.0196 9.20711 10.2071C9.01957 10.3946 8.76522 10.5 8.5 10.5H1.5C1.23478 10.5 0.98043 10.3946 0.792893 10.2071C0.605357 10.0196 0.5 9.76522 0.5 9.5V2.5C0.5 2.23478 0.605357 1.98043 0.792893 1.79289C0.98043 1.60536 1.23478 1.5 1.5 1.5H3.59C3.8 0.92 4.35 0.5 5 0.5C5.65 0.5 6.2 0.92 6.41 1.5H8.5ZM5 1.5C4.86739 1.5 4.74021 1.55268 4.64645 1.64645C4.55268 1.74021 4.5 1.86739 4.5 2C4.5 2.13261 4.55268 2.25979 4.64645 2.35355C4.74021 2.44732 4.86739 2.5 5 2.5C5.13261 2.5 5.25979 2.44732 5.35355 2.35355C5.44732 2.25979 5.5 2.13261 5.5 2C5.5 1.86739 5.44732 1.74021 5.35355 1.64645C5.25979 1.55268 5.13261 1.5 5 1.5ZM2.5 3.5V2.5H1.5V9.5H8.5V2.5H7.5V3.5H2.5ZM5 4.5C5.26522 4.5 5.51957 4.60536 5.70711 4.79289C5.89464 4.98043 6 5.23478 6 5.5C6 5.76522 5.89464 6.01957 5.70711 6.20711C5.51957 6.39464 5.26522 6.5 5 6.5C4.73478 6.5 4.48043 6.39464 4.29289 6.20711C4.10536 6.01957 4 5.76522 4 5.5C4 5.23478 4.10536 4.98043 4.29289 4.79289C4.48043 4.60536 4.73478 4.5 5 4.5ZM3 8.5V8C3 7.45 3.895 7 5 7C6.105 7 7 7.45 7 8V8.5H3Z" fill="white"/>
</svg>
