<svg width="28" height="34" viewBox="0 0 28 34" fill="none" xmlns="http://www.w3.org/2000/svg">
<path d="M4.00008 0.333496C3.11603 0.333496 2.26818 0.684685 1.64306 1.30981C1.01794 1.93493 0.666748 2.78277 0.666748 3.66683V30.3335C0.666748 31.2176 1.01794 32.0654 1.64306 32.6905C2.26818 33.3156 3.11603 33.6668 4.00008 33.6668H24.0001C24.8841 33.6668 25.732 33.3156 26.3571 32.6905C26.9822 32.0654 27.3334 31.2176 27.3334 30.3335V10.3335L17.3334 0.333496H4.00008ZM4.00008 3.66683H15.6667V12.0002H24.0001V30.3335H4.00008V3.66683ZM7.33342 17.0002V20.3335H20.6667V17.0002H7.33342ZM7.33342 23.6668V27.0002H15.6667V23.6668H7.33342Z" fill="#FBFDFF"/>
</svg>
