<svg width="18" height="15" viewBox="0 0 18 15" fill="none" xmlns="http://www.w3.org/2000/svg">
<path d="M9.00083 13.16C9.0144 13.2735 9.00186 13.3885 8.96416 13.4964C8.92647 13.6043 8.86462 13.7022 8.78333 13.7825C8.64281 13.9222 8.45272 14.0006 8.25458 14.0006C8.05644 14.0006 7.86635 13.9222 7.72583 13.7825L4.72583 10.7825C4.64213 10.7021 4.57824 10.6033 4.5392 10.494C4.50015 10.3847 4.48702 10.2678 4.50083 10.1525V6.3125L0.908331 1.715C0.786537 1.55865 0.731581 1.36044 0.755472 1.1637C0.779362 0.966951 0.880157 0.78766 1.03583 0.665C1.16779 0.55913 1.33166 0.500981 1.50083 0.5H12.0008C12.17 0.500981 12.3339 0.55913 12.4658 0.665C12.6215 0.78766 12.7223 0.966951 12.7462 1.1637C12.7701 1.36044 12.7151 1.55865 12.5933 1.715L9.00083 6.3125V13.16ZM3.00083 2L6.00083 5.795V9.935L7.50083 11.435V5.7875L10.5008 2M9.75083 11L13.5008 14.75L17.2508 11H9.75083Z" fill="#FBFDFF"/>
</svg>
