<svg width="10" height="10" viewBox="0 0 10 10" fill="none" xmlns="http://www.w3.org/2000/svg">
<path d="M4.5 0V1.035C3.62005 1.14676 2.80219 1.54777 2.17498 2.17498C1.54777 2.80219 1.14676 3.62005 1.035 4.5H0V5.5H1.035C1.14676 6.37995 1.54777 7.19781 2.17498 7.82502C2.80219 8.45223 3.62005 8.85324 4.5 8.965V10H5.5V8.965C6.37995 8.85324 7.19781 8.45223 7.82502 7.82502C8.45223 7.19781 8.85324 6.37995 8.965 5.5H10V4.5H8.965C8.85324 3.62005 8.45223 2.80219 7.82502 2.17498C7.19781 1.54777 6.37995 1.14676 5.5 1.035V0M4.5 2.04V3H5.5V2.045C6.75 2.25 7.75 3.25 7.96 4.5H7V5.5H7.955C7.75 6.75 6.75 7.75 5.5 7.96V7H4.5V7.955C3.25 7.75 2.25 6.75 2.04 5.5H3V4.5H2.045C2.25 3.25 3.25 2.25 4.5 2.04ZM5 4.5C4.86739 4.5 4.74021 4.55268 4.64645 4.64645C4.55268 4.74021 4.5 4.86739 4.5 5C4.5 5.13261 4.55268 5.25979 4.64645 5.35355C4.74021 5.44732 4.86739 5.5 5 5.5C5.13261 5.5 5.25979 5.44732 5.35355 5.35355C5.44732 5.25979 5.5 5.13261 5.5 5C5.5 4.86739 5.44732 4.74021 5.35355 4.64645C5.25979 4.55268 5.13261 4.5 5 4.5Z" fill="white"/>
</svg>
