<svg width="10" height="9" viewBox="0 0 10 9" fill="none" xmlns="http://www.w3.org/2000/svg">
<path d="M4.5 3C4.5 3.83 3.83 4.5 3 4.5C2.17 4.5 1.5 3.83 1.5 3C1.5 2.17 2.17 1.5 3 1.5C3.83 1.5 4.5 2.17 4.5 3ZM6 8.5H0V7.5C0 6.395 1.345 5.5 3 5.5C4.655 5.5 6 6.395 6 7.5M2.5 3C2.5 3.275 2.725 3.5 3 3.5C3.275 3.5 3.5 3.275 3.5 3C3.5 2.725 3.275 2.5 3 2.5C2.725 2.5 2.5 2.725 2.5 3ZM1 7.5H5C5 6.95 4.105 6.5 3 6.5C1.895 6.5 1 6.95 1 7.5ZM10 4.5V5.5H5.5V4.5M10 2.5V3.5H5.5V2.5M10 0.5V1.5H5.5V0.5H10Z" fill="#FBFDFF"/>
</svg>
