<svg width="24" height="24" viewBox="0 0 24 24" fill="none" xmlns="http://www.w3.org/2000/svg">
<path d="M21.3333 0H2.66667C1.95942 0 1.28115 0.280951 0.781048 0.781048C0.280951 1.28115 0 1.95942 0 2.66667V21.3333C0 22.0406 0.280951 22.7189 0.781048 23.219C1.28115 23.719 1.95942 24 2.66667 24H21.3333C22.0406 24 22.7189 23.719 23.219 23.219C23.719 22.7189 24 22.0406 24 21.3333V2.66667C24 1.95942 23.719 1.28115 23.219 0.781048C22.7189 0.280951 22.0406 0 21.3333 0ZM2.66667 21.3333V18.6667H6.84C7.13191 19.7019 7.72058 20.6289 8.53333 21.3333M21.3333 21.3333H15.4667C16.2794 20.6289 16.8681 19.7019 17.16 18.6667H21.3333M21.3333 16H14.6667V17.3333C14.6667 18.0406 14.3857 18.7189 13.8856 19.219C13.3855 19.719 12.7072 20 12 20C11.2928 20 10.6145 19.719 10.1144 19.219C9.61429 18.7189 9.33333 18.0406 9.33333 17.3333V16H2.66667V2.66667H21.3333M6.66667 10.6667H9.33333V14.6667H14.6667V10.6667H17.3333L12 5.33333" fill="#BAE2F3"/>
</svg>
