<svg width="14" height="14" viewBox="0 0 14 14" fill="none" xmlns="http://www.w3.org/2000/svg">
<path d="M5.66659 6.1665C5.43325 6.55984 5.23992 6.99317 5.12659 7.45317C3.33325 7.6065 1.59992 8.4465 1.59992 8.83317V9.5665H5.13325C5.24659 10.0198 5.43325 10.4465 5.66659 10.8332H0.333252V8.83317C0.333252 7.05984 3.88659 6.1665 5.66659 6.1665ZM5.66659 0.166504C6.37383 0.166504 7.05211 0.447455 7.5522 0.947552C8.0523 1.44765 8.33325 2.12593 8.33325 2.83317C8.33325 3.43984 8.12659 3.99984 7.78659 4.45317C7.21325 4.6665 6.69992 5.0065 6.27325 5.43317L5.66659 5.49984C4.95934 5.49984 4.28106 5.21889 3.78097 4.71879C3.28087 4.21869 2.99992 3.54041 2.99992 2.83317C2.99992 2.12593 3.28087 1.44765 3.78097 0.947552C4.28106 0.447455 4.95934 0.166504 5.66659 0.166504ZM5.66659 1.43317C5.29528 1.43317 4.93919 1.58067 4.67664 1.84322C4.41408 2.10577 4.26659 2.46187 4.26659 2.83317C4.26659 3.20447 4.41408 3.56057 4.67664 3.82312C4.93919 4.08567 5.29528 4.23317 5.66659 4.23317C6.03789 4.23317 6.39398 4.08567 6.65654 3.82312C6.91909 3.56057 7.06659 3.20447 7.06659 2.83317C7.06659 2.46187 6.91909 2.10577 6.65654 1.84322C6.39398 1.58067 6.03789 1.43317 5.66659 1.43317ZM9.33325 5.49984C10.9999 5.49984 12.3333 6.83317 12.3333 8.49984C12.3333 9.0865 12.1666 9.63984 11.8733 10.0998L13.9266 12.1665L12.9999 13.0932L10.9199 11.0465C10.4599 11.3332 9.91325 11.4998 9.33325 11.4998C7.66659 11.4998 6.33325 10.1665 6.33325 8.49984C6.33325 6.83317 7.66659 5.49984 9.33325 5.49984ZM9.33325 6.83317C8.89122 6.83317 8.4673 7.00877 8.15474 7.32133C7.84218 7.63389 7.66659 8.05781 7.66659 8.49984C7.66659 8.94186 7.84218 9.36579 8.15474 9.67835C8.4673 9.99091 8.89122 10.1665 9.33325 10.1665C9.77528 10.1665 10.1992 9.99091 10.5118 9.67835C10.8243 9.36579 10.9999 8.94186 10.9999 8.49984C10.9999 8.05781 10.8243 7.63389 10.5118 7.32133C10.1992 7.00877 9.77528 6.83317 9.33325 6.83317Z" fill="#FBFDFF"/>
</svg>
