<svg width="51" height="56" viewBox="0 0 51 56" fill="none" xmlns="http://www.w3.org/2000/svg">
<path d="M45.5 25.775V10.5C45.5 9.17392 44.9732 7.90215 44.0355 6.96447C43.0979 6.02678 41.8261 5.5 40.5 5.5H30.05C29 2.6 26.25 0.5 23 0.5C19.75 0.5 17 2.6 15.95 5.5H5.5C2.75 5.5 0.5 7.75 0.5 10.5V45.5C0.5 46.8261 1.02678 48.0979 1.96447 49.0355C2.90215 49.9732 4.17392 50.5 5.5 50.5H20.775C23.925 53.6 28.225 55.5 33 55.5C42.675 55.5 50.5 47.675 50.5 38C50.5 33.225 48.6 28.925 45.5 25.775ZM23 5.5C24.375 5.5 25.5 6.625 25.5 8C25.5 9.375 24.375 10.5 23 10.5C21.625 10.5 20.5 9.375 20.5 8C20.5 6.625 21.625 5.5 23 5.5ZM5.5 45.5V10.5H10.5V15.5H35.5V10.5H40.5V22.2C38.225 21.125 35.7 20.5 33 20.5H10.5V25.5H20.75C19.25 26.925 18.1 28.625 17.2 30.5H10.5V35.5H15.7C15.575 36.325 15.5 37.15 15.5 38C15.5 40.7 16.125 43.225 17.2 45.5H5.5ZM33 50.5C26.1 50.5 20.5 44.9 20.5 38C20.5 31.1 26.1 25.5 33 25.5C39.9 25.5 45.5 31.1 45.5 38C45.5 44.9 39.9 50.5 33 50.5ZM34.25 38.625L41.4 42.85L39.525 45.9L30.5 40.5V28H34.25V38.625Z" fill="#FBFDFF"/>
</svg>
