<svg width="14" height="13" viewBox="0 0 14 13" fill="none" xmlns="http://www.w3.org/2000/svg">
<path d="M8 0.5C6.4087 0.5 4.88258 1.13214 3.75736 2.25736C2.63214 3.38258 2 4.9087 2 6.5H0L2.66667 9.16667L5.33333 6.5H3.33333C3.33333 5.26232 3.825 4.07534 4.70017 3.20017C5.57534 2.325 6.76232 1.83333 8 1.83333C9.23768 1.83333 10.4247 2.325 11.2998 3.20017C12.175 4.07534 12.6667 5.26232 12.6667 6.5C12.6667 7.73768 12.175 8.92466 11.2998 9.79983C10.4247 10.675 9.23768 11.1667 8 11.1667C7 11.1667 6.06 10.8333 5.29333 10.3L4.33333 11.26C5.38772 12.062 6.67529 12.4974 8 12.5C9.5913 12.5 11.1174 11.8679 12.2426 10.7426C13.3679 9.61742 14 8.0913 14 6.5C14 4.9087 13.3679 3.38258 12.2426 2.25736C11.1174 1.13214 9.5913 0.5 8 0.5ZM9.33333 6.5C9.33333 6.14638 9.19286 5.80724 8.94281 5.55719C8.69276 5.30714 8.35362 5.16667 8 5.16667C7.64638 5.16667 7.30724 5.30714 7.05719 5.55719C6.80714 5.80724 6.66667 6.14638 6.66667 6.5C6.66667 6.85362 6.80714 7.19276 7.05719 7.44281C7.30724 7.69286 7.64638 7.83333 8 7.83333C8.35362 7.83333 8.69276 7.69286 8.94281 7.44281C9.19286 7.19276 9.33333 6.85362 9.33333 6.5Z" fill="#FBFDFF"/>
</svg>
