<svg width="81" height="69" viewBox="0 0 81 69" fill="none" xmlns="http://www.w3.org/2000/svg">
<path d="M75.0375 35.5625L80.8125 41.3787L53.8763 68.5625L39.5625 54.125L45.3375 48.3088L53.8763 56.8888L75.0375 35.5625ZM33.375 0.5C37.7511 0.5 41.9479 2.23839 45.0423 5.33274C48.1366 8.42709 49.875 12.6239 49.875 17C49.875 21.3761 48.1366 25.5729 45.0423 28.6673C41.9479 31.7616 37.7511 33.5 33.375 33.5C28.9989 33.5 24.8021 31.7616 21.7077 28.6673C18.6134 25.5729 16.875 21.3761 16.875 17C16.875 12.6239 18.6134 8.42709 21.7077 5.33274C24.8021 2.23839 28.9989 0.5 33.375 0.5ZM33.375 8.75C31.187 8.75 29.0885 9.61919 27.5414 11.1664C25.9942 12.7135 25.125 14.812 25.125 17C25.125 19.188 25.9942 21.2865 27.5414 22.8336C29.0885 24.3808 31.187 25.25 33.375 25.25C35.563 25.25 37.6615 24.3808 39.2086 22.8336C40.7558 21.2865 41.625 19.188 41.625 17C41.625 14.812 40.7558 12.7135 39.2086 11.1664C37.6615 9.61919 35.563 8.75 33.375 8.75ZM33.375 37.625C36.18 37.625 39.5625 37.9963 43.3162 38.6975L36.4275 45.5863L33.375 45.4625C21.1238 45.4625 8.2125 51.485 8.2125 54.125V58.6625H33.7875L41.625 66.5H0.375V54.125C0.375 43.1525 22.3612 37.625 33.375 37.625Z" fill="#FBFDFF"/>
</svg>
